<?xml version="1.0" standalone="no"?>
<!DOCTYPE svg PUBLIC "-//W3C//DTD SVG 20010904//EN"
 "http://www.w3.org/TR/2001/REC-SVG-20010904/DTD/svg10.dtd">
<svg version="1.0" xmlns="http://www.w3.org/2000/svg"
 width="1024.000000pt" height="1024.000000pt" viewBox="0 0 1024.000000 1024.000000"
 preserveAspectRatio="xMidYMid meet" background="transparent">

<g transform="translate(0.000000,1024.000000) scale(0.100000,-0.100000)"
fill="#000000" stroke="none">
<path d="M6970 7004 c-223 -31 -544 -119 -711 -196 -85 -39 -75 -27 -196 -248
-44 -80 -125 -226 -180 -325 -55 -99 -159 -287 -232 -419 -158 -284 -360 -637
-372 -650 -12 -13 -12 149 2 844 9 436 14 583 25 608 l13 32 -267 0 c-201 -1
-262 -3 -247 -12 32 -17 66 -51 80 -79 11 -21 17 -184 30 -754 8 -400 13 -730
10 -733 -3 -3 -7 -3 -9 -1 -19 22 -227 388 -494 869 -178 322 -355 639 -393
705 l-68 121 -73 32 c-190 83 -467 156 -708 186 -101 13 -142 12 -90 -1 49
-13 236 -113 307 -163 65 -48 74 -59 108 -133 77 -168 149 -436 181 -677 23
-173 23 -538 0 -715 -38 -286 -97 -488 -206 -710 -141 -285 -324 -486 -498
-546 -166 -57 -359 -20 -529 101 -51 37 -46 30 48 -62 263 -257 626 -500 872
-583 l58 -19 25 29 c46 56 192 280 247 380 104 189 233 482 303 688 28 82 36
128 50 280 19 206 23 514 11 787 -8 162 -7 183 6 170 13 -14 153 -226 437
-665 234 -361 320 -503 319 -527 0 -12 -6 -41 -13 -63 l-12 -40 -41 55 c-44
59 -395 612 -458 722 -21 37 -41 66 -43 64 -2 -2 12 -35 31 -72 19 -38 92
-199 162 -359 70 -159 160 -359 201 -444 72 -149 85 -193 64 -206 -11 -7 -51
30 -108 100 -37 44 -33 32 8 -30 15 -22 40 -70 54 -108 l28 -67 -47 -103 c-25
-56 -49 -108 -52 -115 -6 -15 228 223 327 333 83 92 272 317 333 397 319 417
552 753 703 1015 32 57 61 103 65 103 3 0 2 -35 -2 -77 -18 -194 -29 -456 -29
-711 l0 -278 29 -85 c78 -231 239 -565 362 -754 39 -60 74 -115 76 -122 10
-25 -189 -102 -382 -148 -193 -46 -399 -55 -559 -24 -97 18 -55 1 71 -30 488
-118 879 -85 1288 108 382 181 748 519 1077 996 82 119 81 119 -38 5 -60 -58
-136 -126 -169 -152 -155 -118 -395 -256 -587 -337 l-96 -41 -69 47 c-204 143
-330 341 -448 703 -130 403 -160 810 -99 1332 14 125 40 208 64 208 5 0 10
-30 12 -67 l3 -67 34 80 c116 266 307 511 466 596 39 21 63 37 55 37 -8 -1
-62 -7 -120 -15z"/>
</g>
</svg>