<?xml version="1.0" standalone="no"?>
<!DOCTYPE svg PUBLIC "-//W3C//DTD SVG 20010904//EN"
 "http://www.w3.org/TR/2001/REC-SVG-20010904/DTD/svg10.dtd">
<svg version="1.0" xmlns="http://www.w3.org/2000/svg"
 width="1024.000000pt" height="1024.000000pt" viewBox="0 0 1024.000000 1024.000000"
 preserveAspectRatio="xMidYMid meet">

<g transform="translate(0.000000,1024.000000) scale(0.100000,-0.100000)"
fill="white" stroke="none">
<path d="M6970 7004 c-223 -31 -544 -119 -711 -196 -85 -39 -75 -27 -196 -248
-44 -80 -125 -226 -180 -325 -55 -99 -159 -287 -232 -419 -158 -284 -360 -637
-372 -650 -12 -13 -12 149 2 844 9 436 14 583 25 608 l13 32 -267 0 c-201 -1
-262 -3 -247 -12 32 -17 66 -51 80 -79 11 -21 17 -184 30 -754 8 -400 13 -730
10 -733 -3 -3 -7 -3 -9 -1 -19 22 -227 388 -494 869 -178 322 -355 639 -393
705 l-68 121 -73 32 c-190 83 -467 156 -708 186 -101 13 -142 12 -90 -1 49
-13 236 -113 307 -163 65 -48 74 -59 108 -133 77 -168 149 -436 181 -677 23
-173 23 -538 0 -715 -38 -286 -97 -488 -206 -710 -141 -285 -324 -486 -498
-546 -166 -57 -359 -20 -529 101 -51 37 -46 30 48 -62 263 -257 626 -500 872
-583 l58 -19 25 29 c46 56 192 280 247 380 104 189 233 482 303 688 28 82 36
128 50 280 19 206 23 514 11 787 -8 162 -7 183 6 170 13 -14 153 -226 437
-665 234 -361 320 -503 319 -527 0 -12 -6 -41 -13 -63 l-12 -40 -41 55 c-44
59 -395 612 -458 722 -21 37 -41 66 -43 64 -2 -2 12 -35 31 -72 19 -38 92
-199 162 -359 70 -159 160 -359 201 -444 72 -149 85 -193 64 -206 -11 -7 -51
30 -108 100 -37 44 -33 32 8 -30 15 -22 40 -70 54 -108 l28 -67 -47 -103 c-25
-56 -49 -108 -52 -115 -6 -15 228 223 327 333 83 92 272 317 333 397 319 417
552 753 703 1015 32 57 61 103 65 103 3 0 2 -35 -2 -77 -18 -194 -29 -456 -29
-711 l0 -278 29 -85 c78 -231 239 -565 362 -754 39 -60 74 -115 76 -122 10
-25 -189 -102 -382 -148 -193 -46 -399 -55 -559 -24 -97 18 -55 1 71 -30 488
-118 879 -85 1288 108 382 181 748 519 1077 996 82 119 81 119 -38 5 -60 -58
-136 -126 -169 -152 -155 -118 -395 -256 -587 -337 l-96 -41 -69 47 c-204 143
-330 341 -448 703 -130 403 -160 810 -99 1332 14 125 40 208 64 208 5 0 10
-30 12 -67 l3 -67 34 80 c116 266 307 511 466 596 39 21 63 37 55 37 -8 -1
-62 -7 -120 -15z"/>
<path d="M5712 5108 c-172 -289 -252 -427 -252 -435 0 -3 24 16 53 43 28 28
68 59 87 71 31 19 41 37 79 135 24 62 77 185 117 272 41 88 72 161 70 163 -1
2 -71 -111 -154 -249z"/>
<path d="M5022 4048 l3 -43 -104 -5 -103 -5 18 -23 c19 -22 21 -23 91 -10 40
6 75 9 79 5 3 -3 -5 -26 -19 -50 -31 -53 -92 -86 -126 -68 -19 10 -21 9 -20
-11 0 -13 13 -61 28 -108 18 -59 32 -86 44 -88 14 -3 17 4 17 36 0 38 2 40 38
46 58 9 62 8 62 -23 0 -24 -5 -29 -31 -35 -36 -7 -35 -31 2 -31 17 0 25 -7 27
-21 3 -23 -19 -34 -71 -34 -19 0 -27 -4 -24 -12 3 -9 21 -12 51 -11 46 3 47 2
44 -25 -3 -25 -7 -27 -55 -30 -29 -2 -53 -6 -53 -11 0 -19 25 -28 66 -23 l44
5 0 -41 c0 -29 -5 -44 -17 -50 -20 -11 -190 -32 -252 -32 -42 0 -51 -9 -28
-28 9 -8 51 -8 142 -1 167 12 541 16 580 6 29 -8 28 -6 -21 43 l-51 52 -94
-15 c-187 -31 -186 -31 -193 -5 -3 13 -6 35 -6 51 0 25 3 27 43 27 23 0 66 3
95 7 l53 6 -22 23 c-17 18 -26 21 -46 13 -13 -5 -47 -9 -74 -9 -47 0 -50 2
-47 23 3 20 9 22 73 25 78 3 99 14 65 32 -15 8 -43 10 -82 6 -58 -7 -59 -7
-56 16 3 21 10 24 76 32 39 5 72 12 72 17 0 27 -78 34 -134 13 -12 -5 -16 1
-16 24 0 28 3 30 47 35 27 3 56 1 67 -5 15 -8 21 -6 29 8 6 11 24 32 40 48
l29 29 -24 19 c-18 15 -35 18 -83 14 l-60 -4 27 23 c15 13 37 30 49 39 22 15
22 16 4 36 -18 20 -18 20 103 20 67 0 122 4 122 8 0 5 -11 19 -24 31 -24 23
-26 23 -144 12 -176 -16 -173 -17 -166 18 5 25 3 29 -23 35 -15 4 -36 9 -46
12 -16 5 -18 1 -15 -38z m123 -115 c-33 -78 -55 -83 -55 -13 l0 50 35 0 35 0
-15 -37z m-115 -63 c0 -27 -3 -30 -32 -30 l-32 0 29 30 c16 17 30 30 32 30 2
0 3 -13 3 -30z m190 -65 c0 -24 -3 -25 -55 -25 -30 0 -58 0 -62 0 -5 0 -8 8
-8 18 0 13 12 18 55 23 30 3 58 6 63 7 4 1 7 -9 7 -23z m-192 -17 c-3 -20 -9
-23 -53 -23 -39 0 -50 4 -53 17 -3 16 3 18 91 26 14 2 18 -4 15 -20z"/>
</g>
</svg>
